<svg width="67" height="40" viewBox="0 0 67 40" fill="none" xmlns="http://www.w3.org/2000/svg">
<path d="M10.7729 17.2111H1.65289C1.18189 17.2111 0.797852 16.8261 0.797852 16.3541C0.797852 15.8831 1.18289 15.498 1.65289 15.498H10.7729C11.2449 15.498 11.6289 15.8831 11.6289 16.3541C11.6289 16.8261 11.2449 17.2111 10.7729 17.2111Z" fill="#fff"/>
<path d="M38.5251 32.0851H19.4041C18.9331 32.0851 18.5491 31.7001 18.5491 31.2291C18.5491 30.7581 18.9341 30.373 19.4041 30.373H38.5251C38.9971 30.373 39.381 30.7581 39.381 31.2291C39.381 31.7001 38.9971 32.0851 38.5251 32.0851Z" fill="#fff"/>
<path d="M30.3381 17.125H15.217C14.746 17.125 14.3621 16.74 14.3621 16.27C14.3621 15.8 14.747 15.415 15.217 15.415H30.3381C30.8101 15.415 31.1951 15.8 31.1951 16.27C31.1951 16.74 30.8101 17.125 30.3381 17.125Z" fill="#fff"/>
<path d="M12.9799 25.211H6.8609C6.3889 25.211 6.00488 24.826 6.00488 24.355C6.00488 23.884 6.3899 23.499 6.8609 23.499H12.9799C13.4519 23.499 13.8369 23.884 13.8369 24.355C13.8369 24.826 13.4519 25.211 12.9799 25.211Z" fill="#fff"/>
<path d="M35.3969 10.836H19.2779C18.8059 10.836 18.4209 10.451 18.4209 9.98001C18.4209 9.50901 18.8059 9.125 19.2779 9.125H35.3969C35.8689 9.125 36.2529 9.51001 36.2529 9.98001C36.2539 10.452 35.8689 10.836 35.3969 10.836Z" fill="#fff"/>
<path d="M66.4171 32.873C66.4171 35.415 65.4272 37.806 63.6292 39.605C63.6292 39.605 62.8231 40.01 62.2821 39.481C61.7411 38.952 62.2151 38.191 62.2151 38.191C63.6351 36.77 64.4171 34.882 64.4171 32.874C64.4171 28.744 61.0701 25.201 56.9471 25.174C56.9331 25.174 19.0291 25.124 19.0291 25.124C19.0291 25.124 18.1621 24.914 18.1621 24.112C18.1621 23.31 19.0291 23.124 19.0291 23.124C19.0291 23.124 56.9521 23.183 56.9741 23.185C62.1901 23.227 66.4171 27.65 66.4171 32.873Z" fill="#fff"/>
<path d="M60.7921 7.37499C60.7921 4.83299 59.8021 2.44201 58.0051 0.644005C58.0051 0.644005 57.198 0.237998 56.657 0.767998C56.116 1.297 56.5911 2.05801 56.5911 2.05801C58.0111 3.47901 58.7921 5.36799 58.7921 7.37499C58.7921 11.505 55.4461 15.049 51.3231 15.076C51.3091 15.076 35.4061 15.125 35.4061 15.125C35.4061 15.125 34.5391 15.336 34.5391 16.137C34.5391 16.94 35.4061 17.125 35.4061 17.125C35.4061 17.125 51.3291 17.066 51.3511 17.065C56.5661 17.022 60.7921 12.598 60.7921 7.37499Z" fill="#fff"/>
</svg>
